<svg viewBox="0 0 17 18" xmlns="http://www.w3.org/2000/svg">
<path d="M8.49935 12.542C8.70004 12.542 8.86839 12.474 9.00439 12.338C9.13992 12.2025 9.20768 12.0344 9.20768 11.8337V8.98262C9.20768 8.78192 9.13992 8.61664 9.00439 8.48678C8.86839 8.35692 8.70004 8.29199 8.49935 8.29199C8.29866 8.29199 8.13054 8.35976 7.99502 8.49528C7.85902 8.63128 7.79102 8.79963 7.79102 9.00033V11.8514C7.79102 12.0521 7.85902 12.2173 7.99502 12.3472C8.13054 12.4771 8.29866 12.542 8.49935 12.542ZM8.49935 6.87533C8.70004 6.87533 8.86839 6.80733 9.00439 6.67133C9.13992 6.5358 9.20768 6.36769 9.20768 6.16699C9.20768 5.9663 9.13992 5.79795 9.00439 5.66195C8.86839 5.52642 8.70004 5.45866 8.49935 5.45866C8.29866 5.45866 8.13054 5.52642 7.99502 5.66195C7.85902 5.79795 7.79102 5.9663 7.79102 6.16699C7.79102 6.36769 7.85902 6.5358 7.99502 6.67133C8.13054 6.80733 8.29866 6.87533 8.49935 6.87533ZM8.49935 16.0837C7.51949 16.0837 6.59866 15.8976 5.73685 15.5255C4.87504 15.1539 4.12539 14.6493 3.48789 14.0118C2.85039 13.3743 2.34582 12.6246 1.97418 11.7628C1.60207 10.901 1.41602 9.98019 1.41602 9.00033C1.41602 8.02046 1.60207 7.09963 1.97418 6.23783C2.34582 5.37602 2.85039 4.62637 3.48789 3.98887C4.12539 3.35137 4.87504 2.84656 5.73685 2.47445C6.59866 2.10281 7.51949 1.91699 8.49935 1.91699C9.47921 1.91699 10.4 2.10281 11.2618 2.47445C12.1237 2.84656 12.8733 3.35137 13.5108 3.98887C14.1483 4.62637 14.6529 5.37602 15.0245 6.23783C15.3966 7.09963 15.5827 8.02046 15.5827 9.00033C15.5827 9.98019 15.3966 10.901 15.0245 11.7628C14.6529 12.6246 14.1483 13.3743 13.5108 14.0118C12.8733 14.6493 12.1237 15.1539 11.2618 15.5255C10.4 15.8976 9.47921 16.0837 8.49935 16.0837Z" />
</svg>
