<svg viewBox="0 0 22 22" xmlns="http://www.w3.org/2000/svg">
<path fill-rule="evenodd" clip-rule="evenodd" d="M2.25142 8.78449C6.86341 6.58026 9.9388 5.12711 11.4776 4.42501C15.8711 2.42039 16.784 2.07217 17.3791 2.06067C17.5099 2.05814 17.8026 2.09372 17.9921 2.26244C18.1522 2.4049 18.1962 2.59735 18.2173 2.73242C18.2383 2.8675 18.2646 3.17519 18.2437 3.41562C18.0056 6.15979 16.9754 12.8192 16.4513 15.8927C16.2296 17.1932 15.7929 17.6293 15.3702 17.6719C14.4514 17.7647 13.7538 17.0059 12.864 16.3661C11.4716 15.3648 10.6849 14.7415 9.33336 13.7645C7.77138 12.6354 8.78394 12.0148 9.67411 11.0005C9.90707 10.7351 13.955 6.69619 14.0333 6.32979C14.0431 6.28397 14.0522 6.11316 13.9597 6.02296C13.8672 5.93277 13.7307 5.96361 13.6322 5.98814C13.4925 6.02291 11.2681 7.63572 6.959 10.8266C6.32762 11.3022 5.75573 11.5339 5.24333 11.5218C4.67846 11.5084 3.59187 11.1714 2.7841 10.8834C1.79334 10.5301 1.00591 10.3433 1.07447 9.7433C1.11019 9.43079 1.5025 9.11118 2.25142 8.78449Z"/>
</svg>
